<svg xmlns="http://www.w3.org/2000/svg" viewBox="0 -0.5 100 100" shape-rendering="crispEdges">
<metadata>Made with Pixels to Svg https://codepen.io/shshaw/pen/XbxvNj</metadata>
<path stroke="#000000" d="M24 2h4M29 2h3M34 2h1M37 2h1M39 2h3M43 2h4M49 2h3M56 2h2M61 2h2M65 2h1M69 2h1M71 2h4M24 3h1M29 3h1M32 3h1M34 3h2M37 3h1M40 3h1M43 3h1M48 3h1M55 3h1M60 3h1M63 3h1M65 3h2M68 3h2M71 3h1M24 4h3M29 4h3M34 4h1M36 4h2M40 4h1M43 4h3M49 4h2M55 4h1M57 4h2M60 4h4M65 4h1M67 4h1M69 4h1M71 4h3M24 5h1M29 5h1M31 5h1M34 5h1M37 5h1M40 5h1M43 5h1M51 5h1M55 5h1M58 5h1M60 5h1M63 5h1M65 5h1M69 5h1M71 5h1M24 6h4M29 6h1M32 6h1M34 6h1M37 6h1M39 6h3M43 6h4M48 6h3M56 6h2M60 6h1M63 6h1M65 6h1M69 6h1M71 6h4M32 8h1M36 8h1M38 8h4M43 8h3M49 8h3M53 8h3M57 8h5M63 8h4M32 9h1M36 9h1M38 9h1M43 9h1M46 9h1M48 9h1M54 9h1M59 9h1M63 9h1M32 10h1M34 10h1M36 10h1M38 10h3M43 10h3M49 10h2M54 10h1M59 10h1M63 10h3M32 11h2M35 11h2M38 11h1M43 11h1M46 11h1M51 11h1M54 11h1M59 11h1M63 11h1M32 12h1M36 12h1M38 12h4M43 12h3M48 12h3M53 12h3M59 12h1M63 12h4" />
<path stroke="#ff0000" d="M25 8h1M28 8h1M25 9h1M28 9h1M24 11h1M29 11h1M25 12h4" />
<path stroke="#3c00ff" d="M69 8h1M72 8h1M69 9h1M72 9h1M68 11h1M73 11h1M69 12h4" />
</svg>